#N canvas 184 66 894 442 10;
#X obj 139 152 dac~;
#X obj 134 72 osc~ 440, f 9;
#X msg 34 34 440;
#X msg 61 34 493.88;
#X msg 105 34 523.25;
#X msg 149 34 587.33;
#X msg 194 34 659.25;
#X msg 240 34 698.46;
#X msg 287 34 783.99;
#X msg 334 34 880;
#X obj 149 123 *~;
#X msg 223 94 0;
#X msg 255 95 1;
#X obj 223 133 hsl 128 15 0 1 0 0 empty empty Volumen -2 -8 0 10 -262144
-1 -1 1750 1;
#X text 225 78 OFF ON;
#X text 45 17 A B C D E F G A*;
#X connect 1 0 10 0;
#X connect 2 0 1 0;
#X connect 3 0 1 0;
#X connect 4 0 1 0;
#X connect 5 0 1 0;
#X connect 6 0 1 0;
#X connect 7 0 1 0;
#X connect 8 0 1 0;
#X connect 9 0 1 0;
#X connect 10 0 0 0;
#X connect 10 0 0 1;
#X connect 11 0 10 1;
#X connect 12 0 10 1;
#X connect 13 0 10 1;
